<?xml version="1.0" encoding="utf-8" standalone="no"?>
<!DOCTYPE svg PUBLIC "-//W3C//DTD SVG 1.1//EN"
  "http://www.w3.org/Graphics/SVG/1.1/DTD/svg11.dtd">
<svg xmlns:xlink="http://www.w3.org/1999/xlink" width="727.390781pt" height="269.424pt" viewBox="0 0 727.390781 269.424" xmlns="http://www.w3.org/2000/svg" version="1.1">
 <metadata>
  <rdf:RDF xmlns:dc="http://purl.org/dc/elements/1.1/" xmlns:cc="http://creativecommons.org/ns#" xmlns:rdf="http://www.w3.org/1999/02/22-rdf-syntax-ns#">
   <cc:Work>
    <dc:type rdf:resource="http://purl.org/dc/dcmitype/StillImage"/>
    <dc:date>2026-08-20T14:19:39.412274</dc:date>
    <dc:format>image/svg+xml</dc:format>
    <dc:creator>
     <cc:Agent>
      <dc:title>Matplotlib v3.10.8, https://matplotlib.org/</dc:title>
     </cc:Agent>
    </dc:creator>
   </cc:Work>
  </rdf:RDF>
 </metadata>
 <defs>
  <style type="text/css">*{stroke-linejoin: round; stroke-linecap: butt}</style>
 </defs>
 <g id="figure_1">
  <g id="patch_1">
   <path d="M 0 269.424
L 727.390781 269.424
L 727.390781 0
L 0 0
z
" style="fill: #ffffff"/>
  </g>
  <g id="axes_1">
   <g id="patch_2">
    <path d="M 66.839391 110.994768
L 173.082591 110.994768
Q 180.582111 110.994768 180.582111 107.93448
L 180.582111 69.68088
Q 180.582111 66.620592 173.082591 66.620592
L 66.839391 66.620592
Q 59.339871 66.620592 59.339871 69.68088
L 59.339871 107.93448
Q 59.339871 110.994768 66.839391 110.994768
L 66.839391 110.994768
z
" clip-path="url(#pa9a654e840)" style="fill: none; stroke: #000000; stroke-width: 1.4; stroke-linejoin: miter"/>
   </g>
   <g id="patch_3">
    <path d="M 210.580191 110.994768
L 316.823391 110.994768
Q 324.322911 110.994768 324.322911 107.93448
L 324.322911 69.68088
Q 324.322911 66.620592 316.823391 66.620592
L 210.580191 66.620592
Q 203.080671 66.620592 203.080671 69.68088
L 203.080671 107.93448
Q 203.080671 110.994768 210.580191 110.994768
L 210.580191 110.994768
z
" clip-path="url(#pa9a654e840)" style="fill: none; stroke: #000000; stroke-width: 1.4; stroke-linejoin: miter"/>
   </g>
   <g id="patch_4">
    <path d="M 354.320991 110.994768
L 460.564191 110.994768
Q 468.063711 110.994768 468.063711 107.93448
L 468.063711 69.68088
Q 468.063711 66.620592 460.564191 66.620592
L 354.320991 66.620592
Q 346.821471 66.620592 346.821471 69.68088
L 346.821471 107.93448
Q 346.821471 110.994768 354.320991 110.994768
L 354.320991 110.994768
z
" clip-path="url(#pa9a654e840)" style="fill: none; stroke: #000000; stroke-width: 1.4; stroke-linejoin: miter"/>
   </g>
   <g id="patch_5">
    <path d="M 498.061791 110.994768
L 604.304991 110.994768
Q 611.804511 110.994768 611.804511 107.93448
L 611.804511 69.68088
Q 611.804511 66.620592 604.304991 66.620592
L 498.061791 66.620592
Q 490.562271 66.620592 490.562271 69.68088
L 490.562271 107.93448
Q 490.562271 110.994768 498.061791 110.994768
L 498.061791 110.994768
z
" clip-path="url(#pa9a654e840)" style="fill: none; stroke: #000000; stroke-width: 1.4; stroke-linejoin: miter"/>
   </g>
   <g id="patch_6">
    <path d="M 210.580191 213.004368
L 316.823391 213.004368
Q 324.322911 213.004368 324.322911 209.94408
L 324.322911 171.69048
Q 324.322911 168.630192 316.823391 168.630192
L 210.580191 168.630192
Q 203.080671 168.630192 203.080671 171.69048
L 203.080671 209.94408
Q 203.080671 213.004368 210.580191 213.004368
L 210.580191 213.004368
z
" clip-path="url(#pa9a654e840)" style="fill: none; stroke: #000000; stroke-width: 1.4; stroke-linejoin: miter"/>
   </g>
   <g id="patch_7">
    <path d="M 423.066591 213.004368
L 529.309791 213.004368
Q 536.809311 213.004368 536.809311 209.94408
L 536.809311 171.69048
Q 536.809311 168.630192 529.309791 168.630192
L 423.066591 168.630192
Q 415.567071 168.630192 415.567071 171.69048
L 415.567071 209.94408
Q 415.567071 213.004368 423.066591 213.004368
L 423.066591 213.004368
z
" clip-path="url(#pa9a654e840)" style="fill: none; stroke: #000000; stroke-width: 1.4; stroke-linejoin: miter"/>
   </g>
   <g id="text_1">
    <text style="font-size: 11px; font-family: 'DejaVu Sans', 'Bitstream Vera Sans', 'Computer Modern Sans Serif', 'Lucida Grande', 'Verdana', 'Geneva', 'Lucid', 'Arial', 'Helvetica', 'Avant Garde', sans-serif" transform="translate(85.595444 85.777867)">Обучающие</text>
    <text style="font-size: 11px; font-family: 'DejaVu Sans', 'Bitstream Vera Sans', 'Computer Modern Sans Serif', 'Lucida Grande', 'Verdana', 'Geneva', 'Lucid', 'Arial', 'Helvetica', 'Avant Garde', sans-serif" transform="translate(97.869897 98.095461)">данные</text>
   </g>
   <g id="text_2">
    <!-- $R_{\text{обуч}}(\theta)$ -->
    <g transform="translate(242.746791 91.33768)">
     <text>
      <tspan x="0" y="-0.5625" style="font-style: oblique; font-size: 11px; font-family: 'DejaVu Sans'">R</tspan>
      <tspan x="30.801074" y="-0.5625" style="font-style: oblique; font-size: 11px; font-family: 'DejaVu Sans'">θ</tspan>
      <tspan x="7.643066" y="1.242188" style="font-size: 7.7px; font-family: 'DejaVu Sans'">о</tspan>
      <tspan x="12.354053" y="1.242188" style="font-size: 7.7px; font-family: 'DejaVu Sans'">б</tspan>
      <tspan x="17.102637" y="1.242188" style="font-size: 7.7px; font-family: 'DejaVu Sans'">у</tspan>
      <tspan x="21.659473" y="1.242188" style="font-size: 7.7px; font-family: 'DejaVu Sans'">ч</tspan>
      <tspan x="26.50957" y="-0.5625" style="font-size: 11px; font-family: 'DejaVu Sans'">(</tspan>
      <tspan x="37.531055" y="-0.5625" style="font-size: 11px; font-family: 'DejaVu Sans'">)</tspan>
     </text>
    </g>
   </g>
   <g id="text_3">
    <text style="font-size: 11px; font-family: 'DejaVu Sans', 'Bitstream Vera Sans', 'Computer Modern Sans Serif', 'Lucida Grande', 'Verdana', 'Geneva', 'Lucid', 'Arial', 'Helvetica', 'Avant Garde', sans-serif; text-anchor: middle" x="407.442591" y="91.842992" transform="rotate(-0 407.442591 91.842992)">Оптимизатор</text>
   </g>
   <g id="text_4">
    <!-- $\hat\theta$ -->
    <g transform="translate(547.773391 92.900024)">
     <text>
      <tspan x="7.042969" y="-4.203125" style="font-size: 11px; font-family: 'DejaVu Sans'">̂</tspan>
      <tspan x="0" y="-0.546875" style="font-style: oblique; font-size: 11px; font-family: 'DejaVu Sans'">θ</tspan>
     </text>
    </g>
   </g>
   <g id="text_5">
    <text style="font-size: 11px; font-family: 'DejaVu Sans', 'Bitstream Vera Sans', 'Computer Modern Sans Serif', 'Lucida Grande', 'Verdana', 'Geneva', 'Lucid', 'Arial', 'Helvetica', 'Avant Garde', sans-serif; text-anchor: middle" x="263.701791" y="193.852592" transform="rotate(-0 263.701791 193.852592)">Валидация / тест</text>
   </g>
   <g id="text_6">
    <text style="font-size: 11px; font-family: 'DejaVu Sans', 'Bitstream Vera Sans', 'Computer Modern Sans Serif', 'Lucida Grande', 'Verdana', 'Geneva', 'Lucid', 'Arial', 'Helvetica', 'Avant Garde', sans-serif" transform="translate(442.382097 187.693796)">Метрика на</text>
    <text style="font-size: 11px; font-family: 'DejaVu Sans', 'Bitstream Vera Sans', 'Computer Modern Sans Serif', 'Lucida Grande', 'Verdana', 'Geneva', 'Lucid', 'Arial', 'Helvetica', 'Avant Garde', sans-serif" transform="translate(434.6778 200.011389)">новых данных</text>
   </g>
   <g id="patch_8">
    <path d="M 178.209979 88.80768
Q 191.831301 88.80768 204.334589 88.80768
" style="fill: none; stroke: #000000; stroke-linecap: round"/>
    <path d="M 199.934589 86.60768
L 204.334589 88.80768
L 199.934589 91.00768
" style="fill: none; stroke: #000000; stroke-linecap: round"/>
   </g>
   <g id="patch_9">
    <path d="M 321.950779 88.80768
Q 335.572101 88.80768 348.075389 88.80768
" style="fill: none; stroke: #000000; stroke-linecap: round"/>
    <path d="M 343.675389 86.60768
L 348.075389 88.80768
L 343.675389 91.00768
" style="fill: none; stroke: #000000; stroke-linecap: round"/>
   </g>
   <g id="patch_10">
    <path d="M 465.691579 88.80768
Q 479.312901 88.80768 491.816189 88.80768
" style="fill: none; stroke: #000000; stroke-linecap: round"/>
    <path d="M 487.416189 86.60768
L 491.816189 88.80768
L 487.416189 91.00768
" style="fill: none; stroke: #000000; stroke-linecap: round"/>
   </g>
   <g id="patch_11">
    <path d="M 549.606496 110.442927
Q 513.684896 138.53806 478.643961 165.944404
" style="fill: none; stroke: #000000; stroke-linecap: round"/>
    <path d="M 483.465156 164.966609
L 478.643961 165.944404
L 480.754442 161.500771
" style="fill: none; stroke: #000000; stroke-linecap: round"/>
   </g>
   <g id="patch_12">
    <path d="M 321.947918 190.81728
Q 366.819121 190.81728 410.57229 190.81728
" style="fill: none; stroke: #000000; stroke-linecap: round"/>
    <path d="M 406.17229 188.61728
L 410.57229 190.81728
L 406.17229 193.01728
" style="fill: none; stroke: #000000; stroke-linecap: round"/>
   </g>
   <g id="text_7">
    <text style="font-weight: 700; font-size: 11px; font-family: 'DejaVu Sans', 'Bitstream Vera Sans', 'Computer Modern Sans Serif', 'Lucida Grande', 'Verdana', 'Geneva', 'Lucid', 'Arial', 'Helvetica', 'Avant Garde', sans-serif; text-anchor: middle" x="363.695391" y="37.80288" transform="rotate(-0 363.695391 37.80288)">Оптимизатор минимизирует целевую функцию на обучении; качество на новых данных проверяется отдельно</text>
   </g>
   <g id="text_8">
    <text style="font-size: 11px; font-family: 'DejaVu Sans', 'Bitstream Vera Sans', 'Computer Modern Sans Serif', 'Lucida Grande', 'Verdana', 'Geneva', 'Lucid', 'Arial', 'Helvetica', 'Avant Garde', sans-serif; text-anchor: middle" x="363.695391" y="241.82208" transform="rotate(-0 363.695391 241.82208)">Даже почти идеальный минимум на обучении не гарантирует качество на новых данных.</text>
   </g>
  </g>
 </g>
 <defs>
  <clipPath id="pa9a654e840">
   <rect x="51.215391" y="7.2" width="624.96" height="255.024"/>
  </clipPath>
 </defs>
</svg>
